<?xml version="1.0" encoding="UTF-8"?>
<svg width="24px" height="24px" viewBox="0 0 22 22" version="1.1" xmlns="http://www.w3.org/2000/svg" xmlns:xlink="http://www.w3.org/1999/xlink">
    <title>Icons/Ico-Heart-White Copy 3</title>
    <g id="Components" stroke="none" stroke-width="1" fill="none" fill-rule="evenodd" stroke-linecap="round" stroke-linejoin="round">
        <g id="Portal-Mitarbeiterentwicklung/Navigation" transform="translate(-31.000000, -456.000000)" stroke="#0a50aa" stroke-width="1.5">
            <g id="first-group" transform="translate(10.000000, 137.000000)">
                <g id="Group-8-Copy-2" transform="translate(15.000000, 315.037199)">
                    <g id="task-list-edit-1" transform="translate(7.624167, 5.633999)">
                        <path d="M18.2341667,11.7680562 L11.8758333,18.1271404 L8.75083333,18.7522142 L9.37583333,15.6268452 L15.735,9.26776098 C16.4232932,8.57941491 17.5392068,8.57941491 18.2275,9.26776098 L18.235,9.27526187 C18.9230347,9.96386645 18.9226616,11.0799119 18.2341667,11.7680562 Z" id="Path"></path>
                        <line x1="3.75" y1="8.1259595" x2="11.25" y2="8.1259595" id="Path"></line>
                        <line x1="3.75" y1="11.2513285" x2="8.75" y2="11.2513285" id="Path"></line>
                        <line x1="3.75" y1="14.3766976" x2="6.25" y2="14.3766976" id="Path"></line>
                        <path d="M6.25,18.7522142 L1.25,18.7522142 C0.559644063,18.7522142 0,18.1925041 0,17.5020666 L0,4.37551665 C0,3.68507919 0.559644063,3.12536904 1.25,3.12536904 L4.37583333,3.12536904 C4.37583333,1.39927538 5.77494349,0 7.50083333,0 C9.22672318,0 10.6258333,1.39927538 10.6258333,3.12536904 L13.7508333,3.12536904 C14.4411893,3.12536904 15.0008333,3.68507919 15.0008333,4.37551665 L15.0008333,6.25073807" id="Path"></path>
                        <path d="M7.5,2.50029523 C7.67258898,2.50029523 7.8125,2.64022277 7.8125,2.81283213 C7.8125,2.9854415 7.67258898,3.12536904 7.5,3.12536904 C7.32741102,3.12536904 7.1875,2.9854415 7.1875,2.81283213 C7.18727792,2.7298743 7.22013061,2.6502502 7.27878394,2.59158995 C7.33743727,2.53292969 7.41705196,2.50007312 7.5,2.50029523" id="Path"></path>
                    </g>
                </g>
            </g>
        </g>
    </g>
</svg>